<svg xmlns="http://www.w3.org/2000/svg" viewBox="0 0 87.39 62.17"><defs><style>.cls-1{fill:#3e60aa;}</style></defs><title>Asset 9</title><g id="Layer_2" data-name="Layer 2"><g id="Layer_1-2" data-name="Layer 1"><g id="_Group_" data-name="&lt;Group&gt;"><path id="_Path_" data-name="&lt;Path&gt;" class="cls-1" d="M80.84,62.17H35.79a6.56,6.56,0,0,1-6.56-6.55V39.26l5.21,1.39v15A1.34,1.34,0,0,0,35.79,57H80.84a1.34,1.34,0,0,0,1.34-1.34V26.46a1.34,1.34,0,0,0-1.34-1.34H42.57a2.6,2.6,0,0,1-2.6-2.6h0a2.61,2.61,0,0,1,2.6-2.61H80.84a6.55,6.55,0,0,1,6.55,6.55V55.62A6.55,6.55,0,0,1,80.84,62.17Z"/><path id="_Path_2" data-name="&lt;Path&gt;" class="cls-1" d="M45.11,32.73c-2.28-4.61-8.82-5.64-10.91-6.6-3.18-1.45-3.85-1.39-3.85-3s3.23-7.21,3.23-7.21h7.78L50,22.59H65.62L46.74,3.92A15.74,15.74,0,0,0,36.18,0C28.42,0,5.67,0,0,0V18.69s7.59,8.19,12.07,12c6.55,2.33,21.71,6.16,25.24,7.4C45.86,41.05,47.21,37,45.11,32.73Z"/><rect id="_Rectangle_" data-name="&lt;Rectangle&gt;" class="cls-1" x="31.84" y="42.19" width="52.95" height="10.11"/></g></g></g></svg>