<svg xmlns="http://www.w3.org/2000/svg" viewBox="0 0 61.71 83.25"><defs><style>.cls-1{fill:#3e60aa;}</style></defs><title>Asset 2</title><g id="Layer_2" data-name="Layer 2"><g id="Layer_1-2" data-name="Layer 1"><g id="_Group_" data-name="&lt;Group&gt;"><path id="_Compound_Path_" data-name="&lt;Compound Path&gt;" class="cls-1" d="M47.11,20.58A43.27,43.27,0,0,0,41.92,19v9.19H8.9V19a43.45,43.45,0,0,0-5.2,1.56A5.87,5.87,0,0,0,0,26.08V74.32a5.86,5.86,0,0,0,3.7,5.49C9.4,82,17.75,83.25,25.41,83.25s16-1.26,21.7-3.44a5.86,5.86,0,0,0,3.7-5.49V26.08A5.87,5.87,0,0,0,47.11,20.58Zm-34.26,55a3.78,3.78,0,1,1,3.77-3.77A3.77,3.77,0,0,1,12.85,75.56Zm0-11.7a3.78,3.78,0,1,1,3.77-3.77A3.77,3.77,0,0,1,12.85,63.86Zm12.56,11.7a3.78,3.78,0,1,1,3.77-3.77A3.77,3.77,0,0,1,25.41,75.56Zm0-11.7a3.78,3.78,0,1,1,3.77-3.77A3.77,3.77,0,0,1,25.41,63.86ZM38,75.56a3.78,3.78,0,1,1,3.78-3.77A3.77,3.77,0,0,1,38,75.56Zm0-11.7a3.78,3.78,0,1,1,3.78-3.77A3.77,3.77,0,0,1,38,63.86Zm5.68-15.17c-5.09.35-11.39.56-18.23.56S12.26,49,7.18,48.69V37.19c5.08-.35,11.38-.56,18.23-.56s13.14.21,18.23.56Z"/><path id="_Path_" data-name="&lt;Path&gt;" class="cls-1" d="M41.92,30.4a2.19,2.19,0,0,1-2.19-2.19V5.39l-1.12-.53-3.3,1.59L32,4.86l-3.3,1.59-3.3-1.59L22.1,6.45,18.8,4.86,15.5,6.45,12.2,4.86l-1.11.53V28.21a2.19,2.19,0,0,1-4.38,0V2.64L12.2,0l3.3,1.59L18.8,0l3.3,1.59L25.41,0l3.3,1.59L32,0l3.3,1.59L38.61,0l5.5,2.64V28.21A2.19,2.19,0,0,1,41.92,30.4Z"/><rect id="_Path_2" data-name="&lt;Path&gt;" class="cls-1" x="15.63" y="10.94" width="19.24" height="3.5"/><rect id="_Path_3" data-name="&lt;Path&gt;" class="cls-1" x="15.63" y="18.26" width="11.74" height="3.5"/><path id="_Path_4" data-name="&lt;Path&gt;" class="cls-1" d="M57,74.79h0V25.35h0a4.75,4.75,0,0,1,4.74,4.75V70A4.75,4.75,0,0,1,57,74.79Z"/><path id="_Path_5" data-name="&lt;Path&gt;" class="cls-1" d="M48.86,54.13l12.85,8.43V70h0a6.32,6.32,0,0,1-6.32,6.33H48.86Z"/></g></g></g></svg>