<svg xmlns="http://www.w3.org/2000/svg" viewBox="0 0 57 84.62"><defs><style>.cls-1{fill:#3e60aa;}</style></defs><title>Asset 5</title><g id="Layer_2" data-name="Layer 2"><g id="Layer_1-2" data-name="Layer 1"><g id="_Group_" data-name="&lt;Group&gt;"><path id="_Path_" data-name="&lt;Path&gt;" class="cls-1" d="M42.6,62V78.53a1,1,0,0,1-1,1H15.41a1,1,0,0,1-1-1V62H9.32V78.53a6.09,6.09,0,0,0,6.09,6.09H41.59a6.09,6.09,0,0,0,6.09-6.09V62Z"/><rect id="_Path_2" data-name="&lt;Path&gt;" class="cls-1" x="30.58" y="62" width="7.28" height="20.08"/><path id="_Compound_Path_" data-name="&lt;Compound Path&gt;" class="cls-1" d="M53,.91C46.47.33,37.35,0,28.5,0S10.53.33,4,.91A4.37,4.37,0,0,0,0,5.27V27.06a12,12,0,0,0,4.78,9.56V60.88A5.49,5.49,0,0,0,8.24,66c5.32,2,13.11,3.21,20.26,3.21S43.44,68,48.76,66a5.49,5.49,0,0,0,3.46-5.13V36.62A12,12,0,0,0,57,27.06V5.27A4.37,4.37,0,0,0,53,.91ZM16.78,60a3.52,3.52,0,1,1,3.52-3.52A3.52,3.52,0,0,1,16.78,60Zm0-10.92a3.52,3.52,0,1,1,3.52-3.52A3.51,3.51,0,0,1,16.78,49.05ZM28.5,60A3.52,3.52,0,1,1,32,56.45,3.52,3.52,0,0,1,28.5,60Zm0-10.92A3.52,3.52,0,1,1,32,45.53,3.51,3.51,0,0,1,28.5,49.05ZM40.22,60a3.52,3.52,0,1,1,3.53-3.52A3.53,3.53,0,0,1,40.22,60Zm0-10.92a3.52,3.52,0,1,1,3.53-3.52A3.52,3.52,0,0,1,40.22,49.05Zm5.55-15.68c-4.82.42-10.78.68-17.27.68s-12.45-.26-17.27-.68V19.46C16.05,19,22,18.78,28.5,18.78S41,19,45.77,19.46Z"/></g></g></g></svg>