<svg xmlns="http://www.w3.org/2000/svg" viewBox="0 0 75.08 71.35"><defs><style>.cls-1{fill:#3e60aa;}</style></defs><title>Asset 6</title><g id="Layer_2" data-name="Layer 2"><g id="Layer_1-2" data-name="Layer 1"><g id="_Group_" data-name="&lt;Group&gt;"><path id="_Path_" data-name="&lt;Path&gt;" class="cls-1" d="M68.47,71.35H41.53a6.62,6.62,0,0,1-6.62-6.61V49.86H40V64.74a1.54,1.54,0,0,0,1.55,1.54H68.47A1.54,1.54,0,0,0,70,64.74V6.61a1.54,1.54,0,0,0-1.54-1.54H41.53A1.54,1.54,0,0,0,40,6.61V25.12H34.91V6.61A6.63,6.63,0,0,1,41.53,0H68.47a6.62,6.62,0,0,1,6.61,6.61V64.74A6.61,6.61,0,0,1,68.47,71.35Z"/><path id="_Path_2" data-name="&lt;Path&gt;" class="cls-1" d="M50.13,54H6.61A6.62,6.62,0,0,1,0,47.38v-34A6.63,6.63,0,0,1,6.61,6.73H32V11.8H6.61a1.55,1.55,0,0,0-1.54,1.55v34a1.54,1.54,0,0,0,1.54,1.54H50.13a1.54,1.54,0,0,0,1.54-1.54V22.74h5.07V47.38A6.62,6.62,0,0,1,50.13,54Z"/><rect id="_Rectangle_" data-name="&lt;Rectangle&gt;" class="cls-1" x="2.54" y="35.25" width="51.76" height="7.88"/><path id="_Rectangle_2" data-name="&lt;Rectangle&gt;" class="cls-1" d="M38.48,2.53H71.73a.93.93,0,0,1,.93.93v8.32a0,0,0,0,1,0,0H37.55a0,0,0,0,1,0,0V3.46a.93.93,0,0,1,.93-.93Z"/><path id="_Compound_Path_" data-name="&lt;Compound Path&gt;" class="cls-1" d="M37.45,58.47v4.86a5.49,5.49,0,0,0,5.49,5.49H67.06a5.49,5.49,0,0,0,5.49-5.49V58.47ZM58.4,65.89H51.6a1.69,1.69,0,0,1,0-3.38h6.8a1.69,1.69,0,1,1,0,3.38Z"/><polygon id="_Path_3" data-name="&lt;Path&gt;" class="cls-1" points="64.95 31.86 42.51 31.86 54.41 18.5 64.95 31.86"/><polygon id="_Path_4" data-name="&lt;Path&gt;" class="cls-1" points="37.35 29.72 26.81 16.36 49.25 16.36 37.35 29.72"/></g></g></g></svg>