<svg xmlns="http://www.w3.org/2000/svg" viewBox="0 0 76.05 55.21"><defs><style>.cls-1{fill:#3e60aa;}</style></defs><title>Asset 3</title><g id="Layer_2" data-name="Layer 2"><g id="Layer_1-2" data-name="Layer 1"><g id="_Group_" data-name="&lt;Group&gt;"><path id="_Compound_Path_" data-name="&lt;Compound Path&gt;" class="cls-1" d="M5.32,11.74v9.82H41.38a17.73,17.73,0,0,1,5.09-9.82Z"/><path id="_Compound_Path_2" data-name="&lt;Compound Path&gt;" class="cls-1" d="M5.32,35V8.14A2.83,2.83,0,0,1,8.14,5.32h49a2.84,2.84,0,0,1,2.41,1.36l.54,0a17.17,17.17,0,0,1,5.17,1.18A8.14,8.14,0,0,0,57.14,0h-49A8.15,8.15,0,0,0,0,8.14V35a8.16,8.16,0,0,0,8.14,8.15H36.92V37.81H8.14A2.83,2.83,0,0,1,5.32,35Z"/><path id="_Path_" data-name="&lt;Path&gt;" class="cls-1" d="M50.84,35.45V24.91a8.06,8.06,0,1,1,16.12,0V35.45h6.31V24.91a14.38,14.38,0,0,0-28.75,0V35.45Z"/><rect id="_Rectangle_" data-name="&lt;Rectangle&gt;" class="cls-1" x="40.53" y="30.8" width="35.52" height="24.41" rx="1.25" ry="1.25"/></g></g></g></svg>