<svg xmlns="http://www.w3.org/2000/svg" viewBox="0 0 87.39 72.72"><defs><style>.cls-1{fill:#3e60aa;}</style></defs><title>Asset 7</title><g id="Layer_2" data-name="Layer 2"><g id="Layer_1-2" data-name="Layer 1"><g id="_Group_" data-name="&lt;Group&gt;"><path id="_Compound_Path_" data-name="&lt;Compound Path&gt;" class="cls-1" d="M87.05,42.26a2.84,2.84,0,0,0-1.41-2L50.31,20A22.71,22.71,0,0,0,42,10.76a11.38,11.38,0,0,0-1.35-.68,16.17,16.17,0,0,1,3.06,5.31L17.34,30.94c-1-3-3.27-5.76-5.69-8L2.74,28l.06.08c-1.73,1.2-2.8,3.5-2.8,6.7C0,41.63,4.85,50,10.83,53.45c3.38,1.95,6.39,1.91,8.38.28l3.42,2,.09.12,26.76,15.4a11.36,11.36,0,0,0,8.82,1C69.66,69,83.71,60.32,86.67,54.48,87.45,51.94,87.63,45.57,87.05,42.26ZM26.66,38.17c2.85-1.89,6.51-4.15,10.63-6.53s8-4.49,11.3-6.14l8.77,5.06c-2.85,1.89-6.52,4.15-10.63,6.53s-8,4.49-11.3,6.14Zm21.89,9.64a5.58,5.58,0,0,1-5,0c-1.38-.8-1.37-2.1,0-2.9a5.53,5.53,0,0,1,5,0C50,45.71,49.94,47,48.55,47.81Zm7.75,4.47a5.52,5.52,0,0,1-5,0c-1.38-.8-1.37-2.09,0-2.9a5.55,5.55,0,0,1,5,0C57.7,50.18,57.69,51.48,56.3,52.28ZM56.92,43a5.55,5.55,0,0,1-5,0c-1.38-.8-1.37-2.09,0-2.9a5.55,5.55,0,0,1,5,0C58.32,40.87,58.31,42.17,56.92,43Zm7.75,4.48a5.56,5.56,0,0,1-5,0c-1.39-.8-1.38-2.1,0-2.9a5.55,5.55,0,0,1,5,0C66.07,45.35,66.06,46.65,64.67,47.45Zm.63-9.31a5.58,5.58,0,0,1-5,0c-1.38-.8-1.38-2.1,0-2.9a5.55,5.55,0,0,1,5,0C66.69,36,66.69,37.34,65.3,38.14Zm7.75,4.47a5.52,5.52,0,0,1-5,0c-1.38-.8-1.37-2.09,0-2.89a5.5,5.5,0,0,1,5,0C74.45,40.51,74.44,41.81,73.05,42.61Z"/><path id="_Path_" data-name="&lt;Path&gt;" class="cls-1" d="M19.57,33.73h-3.5c0-6.2-9.16-12.82-12.7-14.85l-1.28-.74,2.18-5.83,4.07.17L9.55,9.23l4.07.18,1.21-3.26,4.07.18,1.22-3.25,4.06.17L25.4,0l5.73.25.36.19C32.08.76,46,8.41,46,18.35h-3.5c0-7.13-10.31-13.47-12.32-14.64L27.78,3.6,26.56,6.86,22.5,6.68,21.28,9.93l-4.06-.18L16,13l-4.06-.18-1.22,3.25-4.06-.17-.27.72C9.93,18.91,19.57,25.83,19.57,33.73Z"/></g></g></g></svg>