<svg xmlns="http://www.w3.org/2000/svg" viewBox="0 0 96.25 87.98"><defs><style>.cls-1{fill:#3e60aa;}</style></defs><title>Asset 1</title><g id="Layer_2" data-name="Layer 2"><g id="Layer_1-2" data-name="Layer 1"><g id="_Group_" data-name="&lt;Group&gt;"><g id="_Group_2" data-name="&lt;Group&gt;"><path id="_Path_" data-name="&lt;Path&gt;" class="cls-1" d="M39.36,18.9a20.46,20.46,0,0,0,0,40.92,20.23,20.23,0,0,0,7.56-1.45L40,55.91l-.63,0a16.57,16.57,0,1,1,10.88-29l7,2.46A20.48,20.48,0,0,0,39.36,18.9Z"/><path id="_Path_2" data-name="&lt;Path&gt;" class="cls-1" d="M57.69,69.72A35.47,35.47,0,1,1,74.83,39.36v.15A6.75,6.75,0,0,1,74.74,42c0,.65-.11,1.29-.19,1.92l3.79,1A39.4,39.4,0,0,0,39.36,0a39.36,39.36,0,1,0,20,73.23Z"/><path id="_Path_3" data-name="&lt;Path&gt;" class="cls-1" d="M39.36,9.45a29.91,29.91,0,1,0,15,55.78,4.21,4.21,0,0,1-.19-1.5L54.34,61,54,60.87a26,26,0,1,1,10.29-29l4.4,1.56A30,30,0,0,0,39.36,9.45Z"/></g><g id="_Group_3" data-name="&lt;Group&gt;"><path id="_Path_4" data-name="&lt;Path&gt;" class="cls-1" d="M69.24,37.09,39.79,26.65a3.6,3.6,0,0,0-4.59,2.19L29.5,44.91a3.6,3.6,0,0,0,2.19,4.59l24.68,8.75L54.8,56.5a5,5,0,0,1,7-7.06L67,54.08l4.39-12.4A3.58,3.58,0,0,0,69.24,37.09Z"/><g id="_Group_4" data-name="&lt;Group&gt;"><path id="_Path_5" data-name="&lt;Path&gt;" class="cls-1" d="M66,68.94,62,64.55A5.23,5.23,0,0,1,60,65.82a4.13,4.13,0,0,0,.41,1.92L64,75.18a1.46,1.46,0,0,0,2.13.57h0a4,4,0,0,0,1.71-2.94Z"/><path id="_Path_6" data-name="&lt;Path&gt;" class="cls-1" d="M61.31,63.74l-3.42-3.8-.2-.07-.25,4.06A1,1,0,0,0,58.5,65,4.31,4.31,0,0,0,61.31,63.74Z"/><path id="_Path_7" data-name="&lt;Path&gt;" class="cls-1" d="M84.44,49.82,70.93,46.33l-2.6,7.35,4.52,1.1-.23,1A5.68,5.68,0,0,0,73.27,60l.56,1-.29.42L61.1,50.26a3.9,3.9,0,0,0-5.36.16h0a3.9,3.9,0,0,0-.13,5.35L66,67.32a9,9,0,0,1,1.49,2.23L69,72.75a15.91,15.91,0,0,0,5.12,6.12l8.64,6.18L85.94,88,96.25,77.62,93.84,73.2A20.74,20.74,0,0,1,92,68.54L88,53.39A5,5,0,0,0,84.44,49.82Z"/></g></g></g></g></g></svg>