<svg xmlns="http://www.w3.org/2000/svg" viewBox="0 0 75.9 75.9"><defs><style>.cls-1{fill:#fff;}.cls-2{fill:#f48120;}</style></defs><title>Asset 10</title><g id="Layer_2" data-name="Layer 2"><g id="Layer_1-2" data-name="Layer 1"><g id="_Group_" data-name="&lt;Group&gt;"><g id="_Group_2" data-name="&lt;Group&gt;"><path id="_Path_" data-name="&lt;Path&gt;" class="cls-1" d="M72.76,38A34.81,34.81,0,1,1,38,3.14,34.8,34.8,0,0,1,72.76,38Z"/><path id="_Compound_Path_" data-name="&lt;Compound Path&gt;" class="cls-2" d="M38,75.9A38,38,0,1,1,75.9,38,38,38,0,0,1,38,75.9ZM38,6.29A31.67,31.67,0,1,0,69.62,38,31.69,31.69,0,0,0,38,6.29Z"/></g><path id="_Path_2" data-name="&lt;Path&gt;" class="cls-2" d="M56.91,23.92a5.41,5.41,0,0,0-7.6.39L32.25,41.37l-5.66-5.65a5.41,5.41,0,0,0-7.6-.39,5.41,5.41,0,0,0,.39,7.6L28,51.6a5.88,5.88,0,0,0,4,1.75h.4a5.88,5.88,0,0,0,4-1.75L56.53,31.52A5.42,5.42,0,0,0,56.91,23.92Z"/></g></g></g></svg>