<svg xmlns="http://www.w3.org/2000/svg" viewBox="0 0 59.33 54"><defs><style>.cls-1{fill:#3e60aa;}</style></defs><title>Asset 4</title><g id="Layer_2" data-name="Layer 2"><g id="Layer_1-2" data-name="Layer 1"><g id="_Group_" data-name="&lt;Group&gt;"><path id="_Compound_Path_" data-name="&lt;Compound Path&gt;" class="cls-1" d="M48.72,0H42.47V14.86H59.33V10.61A10.61,10.61,0,0,0,48.72,0ZM16.86,33.39V19.93H0V33.39ZM42.47,19.93V33.39H59.33V19.93ZM10.61,54h6.25V39.14H0v4.25A10.61,10.61,0,0,0,10.61,54ZM42.47,39.14V54h6.25A10.61,10.61,0,0,0,59.33,43.39V39.14ZM21.93,14.86V54H37.39V0H10.61A10.61,10.61,0,0,0,0,10.61v4.25Z"/></g></g></g></svg>