<svg xmlns="http://www.w3.org/2000/svg" viewBox="0 0 71.7 65.7"><defs><style>.cls-1{fill:#3e60aa;}</style></defs><title>Asset 8</title><g id="Layer_2" data-name="Layer 2"><g id="Layer_1-2" data-name="Layer 1"><g id="_Group_" data-name="&lt;Group&gt;"><rect id="_Rectangle_" data-name="&lt;Rectangle&gt;" class="cls-1" x="2.46" y="10.17" width="54.28" height="7.53" transform="translate(59.19 27.87) rotate(180)"/><path id="_Path_" data-name="&lt;Path&gt;" class="cls-1" d="M52.84,0H6.35A6.36,6.36,0,0,0,0,6.35V35.1a6.36,6.36,0,0,0,6.35,6.35H8.46V36.53H6.35A1.44,1.44,0,0,1,4.91,35.1V6.35A1.45,1.45,0,0,1,6.35,4.91H52.84a1.45,1.45,0,0,1,1.44,1.44V21.77h4.91V6.35A6.36,6.36,0,0,0,52.84,0Z"/><path id="_Compound_Path_" data-name="&lt;Compound Path&gt;" class="cls-1" d="M71.7,55.44V30.16a4.24,4.24,0,0,0-4.24-4.24H16.85a4.24,4.24,0,0,0-4.24,4.24v31.3a4.24,4.24,0,0,0,4.24,4.24H67.46a4.24,4.24,0,0,0,4.24-4.24ZM29.11,58.93H21V54h8.15Zm3.43-16a3.48,3.48,0,0,1-3.48,3.48H22.31A3.47,3.47,0,0,1,18.84,43V41.41a3.47,3.47,0,0,1,3.47-3.48h6.75a3.48,3.48,0,0,1,3.48,3.48Zm8.44,16H32.84V54H41Zm11.88,0H44.71V54h8.15Zm11.87,0H56.59V54h8.14Z"/></g></g></g></svg>